Input #0, mov,mp4,m4a,3gp,3g2,mj2, from '/home/hbattu/projects/huberman-gpt/huberman-audio/mp3/tmps2pbiv1g.mp4':
  Metadata:
    major_brand     : dash
    minor_version   : 0
    compatible_brands: iso6mp41
    creation_time   : 2021-05-06T14:07:04.000000Z
  Duration: 01:46:37.61, start: 0.000000, bitrate: 129 kb/s
    Stream #0:0(und): Audio: aac (LC) (mp4a / 0x6134706D), 44100 Hz, stereo, fltp, 0 kb/s (default)
    Metadata:
      creation_time   : 2021-05-06T14:07:04.000000Z
      handler_name    : ISO Media file produced by Google Inc.
Stream mapping:
  Stream #0:0 -> #0:0 (aac (native) -> mp3 (libmp3lame))
Press [q] to stop, [?] for help
[graph_0_in_0_0 @ 0x558839b0f940] tb:1/44100 samplefmt:fltp samplerate:44100 chlayout:0x3
Output #0, mp3, to '../huberman-audio/mp3/JPX8g8ibKFc.mp3':
  Metadata:
    major_brand     : dash
    minor_version   : 0
    compatible_brands: iso6mp41
    TSSE            : Lavf58.29.100
    Stream #0:0(und): Audio: mp3 (libmp3lame), 44100 Hz, stereo, fltp, delay 1105 (default)
    Metadata:
      creation_time   : 2021-05-06T14:07:04.000000Z
      handler_name    : ISO Media file produced by Google Inc.
      encoder         : Lavc58.54.100 libmp3lame
No more output streams to write to, finishing.
size=   99964kB time=01:46:37.62 bitrate= 128.0kbits/s speed=85.5x    
[AVIOContext @ 0x558839ad6900] Statistics: 0 seeks, 150 writeouts
video:0kB audio:99963kB subtitle:0kB other streams:0kB global headers:0kB muxing overhead: 0.000338%
Input file #0 (/home/hbattu/projects/huberman-gpt/huberman-audio/mp3/tmps2pbiv1g.mp4):
  Input stream #0:0 (audio): 275522 packets read (102361733 bytes); 275522 frames decoded (282134528 samples); 
  Total: 275522 packets (102361733 bytes) demuxed
Output file #0 (../huberman-audio/mp3/JPX8g8ibKFc.mp3):
  Output stream #0:0 (audio): 244909 frames encoded (282134528 samples); 244910 packets muxed (102362383 bytes); 
  Total: 244910 packets (102362383 bytes) muxed
[AVIOContext @ 0x558839aff140] Statistics: 2 seeks, 392 writeouts
[AVIOContext @ 0x558839adf880] Statistics: 103538841 bytes read, 0 seeks
